<svg xmlns="http://www.w3.org/2000/svg" viewBox="0 0 113.4 119.57"><defs><style>.cls-1{fill:#e4eef3;stroke:#bebebe;stroke-linecap:round;stroke-linejoin:round;}.cls-1,.cls-6{opacity:0.5;}.cls-1,.cls-10,.cls-11,.cls-12,.cls-2,.cls-3,.cls-4,.cls-6,.cls-7,.cls-8,.cls-9{isolation:isolate;}.cls-2{fill:#ccc;opacity:0.36;}.cls-3{fill:#c3ccd1;opacity:0.4;}.cls-4{fill:#fff;opacity:0.7;}.cls-5{fill:none;}.cls-6{fill:#b5bdc2;}.cls-10,.cls-11,.cls-12,.cls-8,.cls-9{font-size:22.53px;font-family:ArialMT, Arial;}.cls-8{letter-spacing:-0.06em;}.cls-9{letter-spacing:-0.01em;}.cls-11{letter-spacing:-0.01em;}.cls-12{letter-spacing:-0.03em;}</style></defs><title>treatedAsset 4</title><g id="Layer_2" data-name="Layer 2"><g id="Layer_1-2" data-name="Layer 1"><g id="Layer_2-2" data-name="Layer 2-2"><path class="cls-1" d="M112.88,3.07c0-2.85-7.11-2.56-7.11-2.56H10.14S3.3.34,1.59,1.93a3,3,0,0,0-.42,4.19,3.11,3.11,0,0,0,.6.55A13.25,13.25,0,0,1,8,17.81v85.64s-1,15.62,12.52,15.62H98.19c13.51,0,12.52-15.62,12.52-15.62V17.81s.17-9.36.06-10.84A1.87,1.87,0,0,1,112,5.07,2.24,2.24,0,0,0,112.88,3.07Z"/><path class="cls-2" d="M109.31,49.7H9.44V102s-1,15.19,12.17,15.19H97.13c13.12,0,12.17-15.19,12.17-15.19Z"/><path class="cls-3" d="M112.88,3.07c0-2.85-7.11-2.56-7.11-2.56H10.14S3.3.34,1.59,1.93a3,3,0,0,0-.42,4.19,3.11,3.11,0,0,0,.6.55A13.25,13.25,0,0,1,8,17.81v85.64s-1,15.62,12.52,15.62H98.19c13.51,0,12.52-15.62,12.52-15.62V17.81s.17-9.36.06-10.84A1.87,1.87,0,0,1,112,5.07,2.24,2.24,0,0,0,112.88,3.07Zm-15.16.49c-.42,1.68-4.22,2-4.22,2L41.6,7.35H76.34l.46,97c-1.41,7.32-9.48,7.49-9.48,7.49H22.9c-11.95,0-12.09-13-12.09-13V17.9C10.52,12,8.69,8.62,6.44,6.79S4.07,4.25,4.07,4.25C2.93,1.44,7.14,1.59,7.14,1.59H94.21C98.43,1.59,97.72,3.56,97.72,3.56Z"/><path class="cls-4" d="M24.17,4.12H14.6s-4.51.42-2.95,2.67c0,0,5.06,4.22,5.62,8.44v82.7s1,10.67,10,10.67l6.19-.22V15.51S32.18,5.83,24.17,4.12Z"/><path class="cls-5" d="M10.81,98.77s.14,13,12.09,13H67.27s8.12-.17,9.48-7.48l-.41-97H41.6L93.5,5.52s3.8-.28,4.22-2c0,0,.71-2-3.56-2h-87S2.93,1.44,4.05,4.25c0,0,.14.7,2.37,2.54S10.57,12,10.81,17.9Z"/><path class="cls-6" d="M112.88,3.07c0-2.85-7.11-2.56-7.11-2.56H95.66a1.82,1.82,0,0,0,.73.13c5.16.11,12.59-.18,13,2.22.74,4-9.18,3.68-9.18,3.68l.22,100A12.21,12.21,0,0,1,87.84,117h-68a13.89,13.89,0,0,1-10.68-6.22v.32c1.41,4,4.53,8,11.39,8H98.19c13.51,0,12.52-15.62,12.52-15.62V17.81s.17-9.36.06-10.84A1.87,1.87,0,0,1,112,5.07,2.24,2.24,0,0,0,112.88,3.07Z"/><g class="cls-7"><text class="cls-8" transform="translate(23.91 57.03)">T</text><text class="cls-9" transform="translate(34.09 57.03)">r</text><text class="cls-10" transform="translate(41.23 57.03)">e</text><text class="cls-10" transform="translate(52.52 57.03)">a</text><text class="cls-11" transform="translate(63.28 57.03)">t</text><text class="cls-10" transform="translate(70.61 57.03)">ed</text><text class="cls-12" transform="translate(31.72 84.06)">W</text><text class="cls-10" transform="translate(50.04 84.06)">a</text><text class="cls-11" transform="translate(60.81 84.06)">t</text><text class="cls-10" transform="translate(68.13 84.06)">er</text></g></g></g></g></svg>