<svg xmlns="http://www.w3.org/2000/svg" viewBox="0 0 57.37 103.39"><defs><style>.cls-1{isolation:isolate;}.cls-2,.cls-5{fill:#e4eef3;stroke:#bebebe;stroke-linecap:round;stroke-linejoin:round;}.cls-2,.cls-4{opacity:0.6;}.cls-3{fill:#00004a;opacity:0.8;}.cls-6{fill:#c3ccd1;opacity:0.4;}.cls-6,.cls-8{mix-blend-mode:multiply;}.cls-7{fill:#e4f4fe;opacity:0.9;mix-blend-mode:color-dodge;}.cls-8{fill:#b5bdc2;opacity:0.5;}.cls-9{fill:#fff;opacity:0.7;mix-blend-mode:overlay;}.cls-10{font-size:8px;font-family:MyriadPro-Regular, Myriad Pro;}.cls-11{letter-spacing:-0.01em;}.cls-12{letter-spacing:0.01em;}.cls-13{letter-spacing:0em;}.cls-14{letter-spacing:0em;}.cls-15{letter-spacing:-0.01em;}</style></defs><title>ebt indicatorAsset 4</title><g class="cls-1"><g id="Layer_2" data-name="Layer 2"><g id="Layer_1-2" data-name="Layer 1"><path class="cls-2" d="M34.37,47.1V3.29H23V47.1a28.19,28.19,0,1,0,11.37,0Z"/><path class="cls-3" d="M6.26,59.55a27,27,0,1,0,44.85,0Z"/><g class="cls-4"><path class="cls-5" d="M36.06,1.87a1.36,1.36,0,0,1-1.37,1.36h-12a1.36,1.36,0,0,1-1.36-1.36h0A1.36,1.36,0,0,1,22.67.5h12a1.37,1.37,0,0,1,1.37,1.37Z"/><path class="cls-6" d="M34.69.5h-12a1.37,1.37,0,0,0,0,2.73h12a1.37,1.37,0,1,0,0-2.73ZM30.4,2.62H22.84A.82.82,0,0,1,22,1.87a.82.82,0,0,1,.86-.76H30.4a.81.81,0,0,1,.86.76A.81.81,0,0,1,30.4,2.62Z"/><path class="cls-7" d="M24.23,1.77a.45.45,0,0,1-.45.44H23a.45.45,0,0,1-.45-.44h0A.45.45,0,0,1,23,1.32h.74a.45.45,0,0,1,.45.45Z"/><path class="cls-6" d="M34.69.5H32.54a1.45,1.45,0,0,1,1.15,1.15,1.48,1.48,0,0,1-1,1.58h2a1.37,1.37,0,1,0,0-2.73Z"/></g><path class="cls-6" d="M34.37,47.1V3.29H23V47.1a28.19,28.19,0,1,0,11.37,0ZM23.89,44.6V5.6a1,1,0,0,1,.92-1.14h2.5C30,4.23,29.89,5.6,29.89,5.6s.23,35.2,0,38.54-4.1,2.35-4.1,2.35C23.59,46.49,23.89,44.6,23.89,44.6ZM27,98.47c-13.46,0-24.36-11.21-24.36-25s10.9-25,24.36-25,24.35,11.21,24.35,25S40.42,98.47,27,98.47Z"/><path class="cls-8" d="M34.37,47.1V3.29H31.86V44.52A2.68,2.68,0,0,1,29.58,47s-1.36.38-.3.61,18.36.75,24.21,19.27-9.87,34-25.8,34.37C12,101.57,3,88.9.93,79.6A28.18,28.18,0,1,0,34.37,47.1Z"/><path class="cls-9" d="M25.49,5.14a.67.67,0,0,0-.76.68V43.76s-.23,1.67,1,1.82a1,1,0,0,0,1.06-.75V6.13S26.85,5.07,25.49,5.14Z"/><path class="cls-9" d="M35.65,50.51a24.34,24.34,0,0,0-24.73,6.68C0,68.73,5.91,86.63,12.13,91.79c0,0-9.27-13.84-1.67-26.56C20.18,49,35.65,50.51,35.65,50.51Z"/><text class="cls-10" transform="translate(6.93 78.29)">E<tspan class="cls-11" x="3.94" y="0">B</tspan><tspan x="8.2" y="0">T </tspan><tspan class="cls-12" x="13.87" y="0">I</tspan><tspan class="cls-13" x="15.86" y="0">ndic</tspan><tspan class="cls-14" x="30.27" y="0">a</tspan><tspan class="cls-15" x="34.1" y="0">t</tspan><tspan class="cls-13" x="36.7" y="0">or</tspan></text></g></g></g></svg>