<svg xmlns="http://www.w3.org/2000/svg" viewBox="0 0 113.44 205.23"><defs><style>.cls-1{isolation:isolate;}.cls-2,.cls-5{fill:#e4eef3;stroke:#bebebe;stroke-linecap:round;stroke-linejoin:round;}.cls-2,.cls-4{opacity:0.6;}.cls-3{fill:#d8fcfb;opacity:0.43;}.cls-6{fill:#c3ccd1;opacity:0.4;}.cls-6,.cls-8{mix-blend-mode:multiply;}.cls-7{fill:#e4f4fe;opacity:0.9;mix-blend-mode:color-dodge;}.cls-8{fill:#b5bdc2;opacity:0.5;}.cls-9{fill:#fff;opacity:0.7;mix-blend-mode:overlay;}.cls-10{font-size:23px;font-family:MyriadPro-Regular, Myriad Pro;}.cls-11{letter-spacing:-0.03em;}.cls-12{letter-spacing:-0.07em;}.cls-13{letter-spacing:0em;}.cls-14{letter-spacing:0.01em;}</style></defs><title>edta solutionAsset 3</title><g class="cls-1"><g id="Layer_2" data-name="Layer 2"><g id="Layer_1-2" data-name="Layer 1"><path class="cls-2" d="M68.06,93.45V6.06H45.38V93.45a56.22,56.22,0,1,0,22.68,0Z"/><path class="cls-3" d="M12,118.29a53.91,53.91,0,1,0,98.65,30.08,53.56,53.56,0,0,0-9.2-30.08Z"/><g class="cls-4"><path class="cls-5" d="M71.43,3.23A2.72,2.72,0,0,1,68.7,6h-24A2.72,2.72,0,0,1,42,3.23h0A2.72,2.72,0,0,1,44.73.5h24a2.73,2.73,0,0,1,2.73,2.73Z"/><path class="cls-6" d="M68.7.5h-24a2.73,2.73,0,0,0,0,5.45h24A2.73,2.73,0,1,0,68.7.5ZM60.14,4.73H45.06a1.62,1.62,0,0,1-1.71-1.5,1.62,1.62,0,0,1,1.71-1.51H60.14a1.63,1.63,0,0,1,1.72,1.51A1.62,1.62,0,0,1,60.14,4.73Z"/><path class="cls-7" d="M47.82,3a.88.88,0,0,1-.88.89H45.46a.89.89,0,0,1-.9-.89h0a.89.89,0,0,1,.9-.89h1.48a.88.88,0,0,1,.88.89Z"/><path class="cls-6" d="M68.7.5H64.41A2.86,2.86,0,0,1,66.7,2.79,2.94,2.94,0,0,1,64.78,6H68.7A2.73,2.73,0,1,0,68.7.5Z"/></g><path class="cls-6" d="M68.06,93.45V6.06H45.38V93.45a56.22,56.22,0,1,0,22.68,0Zm-20.9-5V10.67A2.08,2.08,0,0,1,49,8.4h5c5.29-.46,5.14,2.27,5.14,2.27s.45,70.22,0,76.88S51,92.24,51,92.24C46.56,92.24,47.16,88.46,47.16,88.46Zm6.13,107.45c-26.83,0-48.58-22.35-48.58-49.93S26.46,96,53.29,96,101.87,118.4,101.87,146,80.12,195.91,53.29,195.91Z"/><path class="cls-8" d="M68.06,93.45V6.06h-5V88.31a5.34,5.34,0,0,1-4.53,4.84s-2.73.76-.61,1.21,36.63,1.51,48.28,38.44-19.68,67.81-51.46,68.56c-31.24.75-49.31-24.53-53.36-43.07A56.21,56.21,0,1,0,68.06,93.45Z"/><path class="cls-9" d="M50.34,9.76a1.32,1.32,0,0,0-1.51,1.36V86.79s-.45,3.33,2,3.64a2,2,0,0,0,2.11-1.52V11.73S53.07,9.61,50.34,9.76Z"/><path class="cls-9" d="M70.62,100.26s-27.54-9.68-49.34,13.32-10,58.72,2.42,69c0,0-18.49-27.61-3.33-53C39.75,97.24,70.62,100.26,70.62,100.26Z"/><text id="EDTA_Solution" data-name="EDTA Solution" class="cls-10" transform="translate(29.42 142.73)">E<tspan class="cls-11" x="11.32" y="0">D</tspan><tspan class="cls-12" x="26.06" y="0">T</tspan><tspan class="cls-13" x="35.76" y="0">A</tspan><tspan class="cls-14"><tspan x="-15.38" y="27.6">S</tspan><tspan class="cls-13" x="-3.9" y="27.6">olution</tspan></tspan></text></g></g></g></svg>