<svg xmlns="http://www.w3.org/2000/svg" xmlns:xlink="http://www.w3.org/1999/xlink" viewBox="0 0 110.4 116.4"><defs><style>.cls-1{fill:#e4eef3;stroke:#bebebe;stroke-linecap:round;stroke-linejoin:round;}.cls-1,.cls-6{opacity:0.5;}.cls-1,.cls-10,.cls-11,.cls-2,.cls-3,.cls-4,.cls-6,.cls-7,.cls-8,.cls-9{isolation:isolate;}.cls-2{opacity:0.36;fill:url(#linear-gradient);}.cls-3{fill:#c3ccd1;opacity:0.4;}.cls-4{fill:#fff;opacity:0.7;}.cls-5{fill:none;}.cls-6{fill:#b5bdc2;}.cls-10,.cls-11,.cls-8,.cls-9{font-size:21.93px;font-family:ArialMT, Arial;}.cls-9{letter-spacing:-0.01em;}.cls-10{letter-spacing:-0.03em;}.cls-11{letter-spacing:-0.01em;}</style><linearGradient id="linear-gradient" x1="9.19" y1="-233.23" x2="106.41" y2="-233.23" gradientTransform="matrix(1, 0, 0, -1, 0, -152)" gradientUnits="userSpaceOnUse"><stop offset="0" stop-color="#fff"/><stop offset="1" stop-color="#c69c6d"/></linearGradient></defs><title>borewellAsset 2</title><g id="Layer_2" data-name="Layer 2"><g id="Layer_1-2" data-name="Layer 1"><g id="Layer_3" data-name="Layer 3"><path class="cls-1" d="M109.88,3C109.88.23,103,.51,103,.51H9.88S3.23.35,1.56,1.89A2.9,2.9,0,0,0,1.15,6a3,3,0,0,0,.59.54A12.9,12.9,0,0,1,7.83,17.35V100.7s-1,15.2,12.19,15.2H95.58c13.15,0,12.19-15.2,12.19-15.2V17.35s.16-9.11.06-10.55A1.81,1.81,0,0,1,109.06,5,2.19,2.19,0,0,0,109.88,3Z"/><path class="cls-2" d="M106.41,48.39H9.2V99.27S8.27,114.06,21,114.06H94.55c12.77,0,11.85-14.79,11.85-14.79Z"/><path class="cls-3" d="M109.88,3C109.88.23,103,.51,103,.51H9.88S3.23.35,1.56,1.89A2.9,2.9,0,0,0,1.15,6a3,3,0,0,0,.59.54A12.9,12.9,0,0,1,7.83,17.35V100.7s-1,15.2,12.19,15.2H95.58c13.15,0,12.19-15.2,12.19-15.2V17.35s.16-9.11.06-10.55A1.81,1.81,0,0,1,109.06,5,2.19,2.19,0,0,0,109.88,3Zm-14.76.47C94.72,5.11,91,5.39,91,5.39L40.5,7.17H74.32l.45,94.42c-1.38,7.12-9.24,7.28-9.24,7.28H22.3c-11.63,0-11.77-12.69-11.77-12.69V17.44c-.28-5.77-2-9-4.25-10.82S4,4.15,4,4.15C2.87,1.42,7,1.56,7,1.56H91.71C95.82,1.56,95.12,3.47,95.12,3.47Z"/><path class="cls-4" d="M23.54,4H14.22s-4.38.4-2.87,2.59c0,0,4.93,4.11,5.47,8.22V95.33s1,10.38,9.72,10.38l6-.21V15.11S31.34,5.69,23.54,4Z"/><path class="cls-5" d="M10.53,96.14s.14,12.7,11.77,12.7H65.49s7.9-.16,9.23-7.28l-.4-94.39H40.5L91,5.39s3.71-.28,4.11-1.92c0,0,.7-1.91-3.46-1.91H7S2.87,1.42,4,4.15c0,0,.14.69,2.31,2.47s4,5.06,4.27,10.82Z"/><path class="cls-6" d="M109.88,3C109.88.23,103,.51,103,.51H93.12a1.71,1.71,0,0,0,.71.12c5,.11,12.26-.17,12.63,2.16.71,3.9-8.94,3.59-8.94,3.59l.21,97.34a11.88,11.88,0,0,1-12.22,10.16H19.29A13.49,13.49,0,0,1,8.9,107.82v.32C10.28,112,13.31,115.9,20,115.9h75.6c13.15,0,12.19-15.2,12.19-15.2V17.35s.16-9.11.06-10.55A1.81,1.81,0,0,1,109.06,5,2.19,2.19,0,0,0,109.88,3Z"/><g class="cls-7"><text class="cls-8" transform="translate(15.78 54.37)">B</text><text class="cls-8" transform="translate(27.75 54.37)">o</text><text class="cls-9" transform="translate(39.79 54.37)">r</text><text class="cls-8" transform="translate(46.75 54.37)">e</text><text class="cls-9" transform="translate(57.73 54.37)">w</text><text class="cls-8" transform="translate(73.65 54.37)">ell</text><text class="cls-10" transform="translate(28.59 80.68)">W</text><text class="cls-8" transform="translate(46.41 80.68)">a</text><text class="cls-11" transform="translate(56.89 80.68)">t</text><text class="cls-8" transform="translate(64.02 80.68)">er</text></g></g></g></g></svg>