<svg xmlns="http://www.w3.org/2000/svg" xmlns:xlink="http://www.w3.org/1999/xlink" viewBox="0 0 113.33 119.5"><defs><style>.cls-1{fill:#e4eef3;stroke:#bebebe;stroke-linecap:round;stroke-linejoin:round;}.cls-1,.cls-6{opacity:0.5;}.cls-1,.cls-10,.cls-2,.cls-3,.cls-4,.cls-6,.cls-7,.cls-8,.cls-9{isolation:isolate;}.cls-2{opacity:0.36;fill:url(#linear-gradient);}.cls-3{fill:#c3ccd1;opacity:0.4;}.cls-4{fill:#fff;opacity:0.7;}.cls-5{fill:none;}.cls-6{fill:#b5bdc2;}.cls-10,.cls-8,.cls-9{font-size:22.52px;font-family:ArialMT, Arial;}.cls-9{letter-spacing:-0.03em;}.cls-10{letter-spacing:-0.01em;}</style><linearGradient id="linear-gradient" x1="9.42" y1="-231.39" x2="109.25" y2="-231.39" gradientTransform="matrix(1, 0, 0, -1, 0, -148)" gradientUnits="userSpaceOnUse"><stop offset="0" stop-color="#fff"/><stop offset="0.11" stop-color="#eaffff"/><stop offset="0.34" stop-color="#b4ffff"/><stop offset="0.67" stop-color="#5effff"/><stop offset="1" stop-color="aqua"/></linearGradient></defs><title>muncipalAsset 3</title><g id="Layer_2" data-name="Layer 2"><g id="Layer_1-2" data-name="Layer 1"><g id="Layer_4" data-name="Layer 4"><path class="cls-1" d="M112.82,3.07c0-2.85-7.11-2.56-7.11-2.56H10.14S3.3.34,1.59,1.93a3,3,0,0,0-.42,4.19,3.14,3.14,0,0,0,.6.55A13.27,13.27,0,0,1,8,17.8v85.59S7,119,20.54,119h77.6c13.49,0,12.51-15.61,12.51-15.61V17.8s.17-9.35.06-10.83A1.86,1.86,0,0,1,112,5.07,2.26,2.26,0,0,0,112.82,3.07Z"/><path class="cls-2" d="M109.25,49.67H9.44v52.25s-1,15.18,12.16,15.18H97.07c13.12,0,12.17-15.18,12.17-15.18Z"/><path class="cls-3" d="M112.82,3.07c0-2.85-7.11-2.56-7.11-2.56H10.14S3.3.34,1.59,1.93a3,3,0,0,0-.42,4.19,3.14,3.14,0,0,0,.6.55A13.27,13.27,0,0,1,8,17.8v85.59S7,119,20.54,119h77.6c13.49,0,12.51-15.61,12.51-15.61V17.8s.17-9.35.06-10.83A1.86,1.86,0,0,1,112,5.07,2.26,2.26,0,0,0,112.82,3.07Zm-15.16.48c-.41,1.69-4.22,2-4.22,2L41.57,7.35H76.3l.46,97c-1.41,7.32-9.48,7.48-9.48,7.48H22.89c-12,0-12.09-13-12.09-13V17.89C10.52,12,8.69,8.61,6.44,6.79S4.07,4.25,4.07,4.25C2.93,1.44,7.14,1.59,7.14,1.59h87C98.37,1.59,97.66,3.55,97.66,3.55Z"/><path class="cls-4" d="M24.15,4.12H14.59s-4.5.42-2.95,2.67c0,0,5.06,4.22,5.62,8.44V97.87s1,10.66,10,10.66l6.18-.21V15.5S32.17,5.83,24.15,4.12Z"/><path class="cls-5" d="M10.8,98.71s.14,13,12.09,13H67.23s8.12-.17,9.48-7.48L76.3,7.35H41.57L93.44,5.52s3.81-.28,4.22-2c0,0,.71-2-3.55-2h-87S2.93,1.44,4,4.25c0,0,.15.7,2.37,2.54S10.56,12,10.8,17.89Z"/><path class="cls-6" d="M112.82,3.07c0-2.85-7.11-2.56-7.11-2.56H95.6a1.82,1.82,0,0,0,.73.13c5.16.1,12.59-.18,13,2.21.73,4-9.17,3.69-9.17,3.69l.21,99.94a12.2,12.2,0,0,1-12.55,10.44h-68A13.83,13.83,0,0,1,9.13,110.7V111c1.41,4,4.53,8,11.37,8H98.14c13.49,0,12.51-15.61,12.51-15.61V17.8s.17-9.35.06-10.83A1.86,1.86,0,0,1,112,5.07,2.26,2.26,0,0,0,112.82,3.07Z"/><g class="cls-7"><text class="cls-8" transform="translate(16.7 55.81)">M</text><text class="cls-8" transform="translate(34.87 55.81)">uncipal</text><text class="cls-9" transform="translate(32.89 82.83)">W</text><text class="cls-8" transform="translate(51.2 82.83)">a</text><text class="cls-10" transform="translate(61.96 82.83)">t</text><text class="cls-8" transform="translate(69.27 82.83)">er</text></g></g></g></g></svg>